Coordinates
version=1
nRows=24
nColumns=22
inDegrees=yes

Units are S.I. units (second, meters, Newtons, ...)
If the header above contains a line with 'inDegrees', this indicates whether rotational values are in degrees (yes) or radians (no).

endheader
time	pelvis_tilt	pelvis_list	pelvis_rotation	pelvis_tx	pelvis_ty	pelvis_tz	hip_flexion_r	hip_adduction_r	hip_rotation_r	knee_angle_r	ankle_angle_r	subtalar_angle_r	hip_flexion_l	hip_adduction_l	hip_rotation_l	knee_angle_l	ankle_angle_l	subtalar_angle_l	lumbar_extension	lumbar_bending	lumbar_rotation
      6.25000000	     -2.18875686	     -3.24143349	    311.90837999	     -0.44035297	      1.01312417	      0.40460747	     -5.58387559	      4.73593020	    -15.45405474	    -12.06101865	     14.61409460	      3.16338298	     23.22248742	     -4.58559831	    -15.03766119	    -18.88756926	      8.51478374	      0.28621346	    -15.48633339	      4.62895652	      7.60757718
      6.26000000	     -2.25537361	     -3.22577076	    312.17613164	     -0.43673167	      1.01218179	      0.40839277	     -5.87855499	      4.81440763	    -15.64030570	    -12.03591009	     14.82075821	      3.35883089	     23.14621666	     -4.53955511	    -15.40626318	    -17.61761641	      8.64753082	      0.36344575	    -15.41774526	      4.61469628	      7.70040097
      6.27000000	     -2.32287652	     -3.24366845	    312.42763082	     -0.43298900	      1.01123097	      0.41220507	     -6.19314855	      4.90924231	    -15.80714757	    -12.03348495	     14.99639007	      3.59785009	     23.01992349	     -4.51147411	    -15.70743312	    -16.42329630	      8.80934968	      0.42445592	    -15.36876811	      4.62131906	      7.78720943
      6.28000000	     -2.39435076	     -3.26444421	    312.66437825	     -0.42911379	      1.01022352	      0.41605412	     -6.49858489	      4.99986106	    -15.96908182	    -12.06076907	     15.18340335	      3.80493450	     22.87275315	     -4.48600370	    -15.95655265	    -15.32101143	      8.98301231	      0.45818133	    -15.30646149	      4.62649107	      7.85639089
      6.29000000	     -2.46493801	     -3.29883097	    312.88901981	     -0.42509706	      1.00917717	      0.41995151	     -6.81088680	      5.09089862	    -16.12083715	    -12.11233739	     15.38250295	      3.98618710	     22.69574916	     -4.46902609	    -16.14975292	    -14.32672066	      9.16413093	      0.47820746	    -15.23983657	      4.63535439	      7.90444696
      6.30000000	     -2.53071576	     -3.37633225	    313.09643607	     -0.42092503	      1.00815002	      0.42392727	     -7.17080229	      5.20327397	    -16.24051448	    -12.16297400	     15.52497650	      4.22811831	     22.46398426	     -4.48538567	    -16.28959602	    -13.45630566	      9.32735634	      0.48813065	    -15.19406108	      4.66581773	      7.95203279
      6.31000000	     -2.59275046	     -3.46809310	    313.28667901	     -0.41660647	      1.00710222	      0.42796983	     -7.53988300	      5.31449410	    -16.32369808	    -12.24193394	     15.66725159	      4.47037266	     22.20690136	     -4.51922928	    -16.40208405	    -12.72706286	      9.45389523	      0.47963622	    -15.14439407	      4.69910367	      7.97130430
      6.32000000	     -2.64144523	     -3.57818937	    313.46107260	     -0.41211622	      1.00607241	      0.43211687	     -7.94736669	      5.42257465	    -16.39115144	    -12.31304681	     15.77712883	      4.75376653	     21.92131275	     -4.57387232	    -16.53100580	    -12.16204576	      9.48415599	      0.43943857	    -15.09199051	      4.72481717	      7.99722714
      6.33000000	     -2.67917413	     -3.69364692	    313.62188491	     -0.40747707	      1.00505172	      0.43634691	     -8.36356054	      5.51823140	    -16.42604427	    -12.41069961	     15.87619003	      5.03920409	     21.63247224	     -4.64616831	    -16.69822008	    -11.78127690	      9.37612625	      0.36146590	    -15.02768534	      4.73996529	      8.00000116
      6.34000000	     -2.68857807	     -3.80191684	    313.77802081	     -0.40265480	      1.00407188	      0.44065958	     -8.79673583	      5.57908052	    -16.44699125	    -12.52571609	     15.93831865	      5.35731528	     21.33959049	     -4.71255739	    -16.93544737	    -11.58389618	      9.11504275	      0.22742052	    -14.95112175	      4.72041853	      7.97992700
      6.35000000	     -2.67133138	     -3.90602250	    313.94987338	     -0.39766611	      1.00314379	      0.44502403	     -9.25009089	      5.61593608	    -16.46729464	    -12.64945083	     16.00996709	      5.70539562	     21.06658577	     -4.77687524	    -17.24241314	    -11.59211941	      8.67958415	      0.02598847	    -14.86668220	      4.66965698	      7.93574643
      6.36000000	     -2.61201568	     -3.99163356	    314.13452136	     -0.39252399	      1.00231534	      0.44937389	     -9.69211197	      5.59736610	    -16.46360030	    -12.83852282	     16.05001559	      6.05876954	     20.80562519	     -4.81256986	    -17.61504088	    -11.76801163	      8.02272559	     -0.21915248	    -14.78665732	      4.57646281	      7.83236336
      6.37000000	     -2.52234627	     -4.05846441	    314.35462611	     -0.38723032	      1.00160975	      0.45369497	    -10.12129699	      5.54073075	    -16.48032969	    -13.07190983	     16.03392459	      6.44808661	     20.56965844	     -4.82076505	    -18.01050328	    -12.08276384	      7.18558983	     -0.50145670	    -14.70243572	      4.44728327	      7.68763296
      6.38000000	     -2.37774389	     -4.07387961	    314.61554336	     -0.38178166	      1.00104002	      0.45795560	    -10.51922528	      5.40210830	    -16.50943372	    -13.37407857	     16.01897870	      6.81117126	     20.36030173	     -4.75373941	    -18.39767387	    -12.50539123	      6.23592334	     -0.72606154	    -14.61069782	      4.24064932	      7.47651542
      6.39000000	     -2.19776498	     -4.05802956	    314.93212137	     -0.37618474	      1.00063691	      0.46211565	    -10.88565180	      5.21453090	    -16.57301167	    -13.74064451	     15.93869514	      7.22357504	     20.17741571	     -4.62922214	    -18.68747871	    -13.00846349	      5.25520784	     -0.89883038	    -14.51992262	      3.99299524	      7.21962235
      6.40000000	     -1.98203501	     -4.00231407	    315.30178102	     -0.37043396	      1.00040635	      0.46615258	    -11.20336566	      4.96713322	    -16.66312693	    -14.19529286	     15.81538550	      7.67661977	     20.01412242	     -4.43104633	    -18.83898137	    -13.55587825	      4.32829055	     -0.98089972	    -14.42673443	      3.70328305	      6.90324888
      6.41000000	     -1.74428361	     -3.91813218	    315.71517462	     -0.36453305	      1.00035413	      0.47006343	    -11.46960261	      4.67497072	    -16.76948701	    -14.74081467	     15.62286814	      8.21610454	     19.86509835	     -4.17294295	    -18.82728841	    -14.13096092	      3.51004296	     -0.98068998	    -14.33306129	      3.39299323	      6.56192211
      6.42000000	     -1.49761738	     -3.80139256	    316.16949282	     -0.35849446	      1.00043814	      0.47385713	    -11.66769088	      4.34432779	    -16.88695605	    -15.38660589	     15.39222430	      8.78064393	     19.74176508	     -3.85813145	    -18.65039449	    -14.72866502	      2.84155164	     -0.93329876	    -14.22403632	      3.06737649	      6.19791582
      6.43000000	     -1.25632528	     -3.67375608	    316.63967366	     -0.35234589	      1.00066231	      0.47754570	    -11.79694828	      3.99353905	    -16.97990911	    -16.14225710	     15.08669791	      9.43822369	     19.63043165	     -3.51578743	    -18.33497303	    -15.33581381	      2.33491077	     -0.90159554	    -14.10962313	      2.75311167	      5.85472977
      6.44000000	     -1.02960995	     -3.53147677	    317.11831316	     -0.34611335	      1.00097664	      0.48112937	    -11.83990850	      3.62582987	    -17.02090109	    -17.02032097	     14.75095030	     10.04773496	     19.53024959	     -3.14367678	    -17.87781496	    -15.92702599	      1.96293295	     -0.93321497	    -13.97860656	      2.45224704	      5.52281603
      6.45000000	     -0.83311110	     -3.42088367	    317.56711639	     -0.33984352	      1.00139343	      0.48464827	    -11.81105579	      3.27383458	    -16.98524399	    -18.02641329	     14.30162480	     10.94153508	     19.42798534	     -2.80874147	    -17.38294994	    -16.52896268	      1.76863941	     -1.11187329	    -13.85731628	      2.20931987	      5.28698340
      6.46000000	     -0.66288319	     -3.31285653	    317.99566345	     -0.33355497	      1.00184828	      0.48807171	    -11.68328903	      2.91896193	    -16.85416365	    -19.17245636	     13.81087407	     11.76725390	     19.32335742	     -2.46952474	    -16.81565049	    -17.09180841	      1.65085087	     -1.43042997	    -13.72503341	      1.99918916	      5.08136432
      6.47000000	     -0.52463901	     -3.22513955	    318.38433236	     -0.32729606	      1.00232456	      0.49141047	    -11.45453939	      2.57178142	    -16.62476306	    -20.46979923	     13.25851204	     12.61859811	     19.20654431	     -2.15258471	    -16.22280969	    -17.61447227	      1.60594618	     -1.90700677	    -13.59293361	      1.83502247	      4.95332272
      6.48000000	     -0.41715192	     -3.15384543	    318.72758225	     -0.32109216	      1.00279416	      0.49466648	    -11.12056404	      2.22869000	    -16.29668144	    -21.91626782	     12.64003183	     13.45659899	     19.07586212	     -1.85951921	    -15.64274885	    -18.08861626	      1.60520262	     -2.51052282	    -13.45819181	      1.71123427	      4.90175331
